<?xml version="1.0" standalone="no"?>
<!DOCTYPE svg PUBLIC "-//W3C//DTD SVG 20010904//EN"
 "http://www.w3.org/TR/2001/REC-SVG-20010904/DTD/svg10.dtd">
<svg version="1.0" xmlns="http://www.w3.org/2000/svg"
 width="96.000000pt" height="96.000000pt" viewBox="0 0 96.000000 96.000000"
 preserveAspectRatio="xMidYMid meet">

<g transform="translate(0.000000,96.000000) scale(0.100000,-0.100000)"
fill="#000000" stroke="none">
<path d="M0 910 l0 -50 48 0 49 0 86 -180 86 -180 -34 -58 c-43 -74 -50 -105
-35 -143 24 -56 39 -59 365 -59 l295 0 0 50 0 50 -280 0 c-154 0 -280 2 -280
5 0 3 9 24 20 45 l20 40 188 0 c128 0 195 4 211 13 25 12 220 347 221 378 1
38 -13 39 -391 39 l-367 0 -21 50 -22 50 -79 0 -80 0 0 -50z"/>
<path d="M225 166 c-65 -65 -22 -166 70 -166 42 0 85 50 85 98 0 79 -100 123
-155 68z"/>
<path d="M705 166 c-65 -65 -22 -166 70 -166 42 0 85 50 85 98 0 79 -100 123
-155 68z"/>
</g>
</svg>
